<mxfile host="app.diagrams.net" modified="2021-11-24T15:25:01.314Z" agent="5.0 (X11)" etag="CYK4RtBlo-wOtjO0zAY6" version="15.8.5" type="github">
  <diagram id="slBmyfKAi3FcheaNqvt_" name="Page-1">
    <mxGraphModel dx="981" dy="532" grid="1" gridSize="10" guides="1" tooltips="1" connect="1" arrows="1" fold="1" page="1" pageScale="1" pageWidth="827" pageHeight="1169" math="0" shadow="0">
      <root>
        <mxCell id="0" />
        <mxCell id="1" parent="0" />
        <mxCell id="sbe0txYyy42ywMZMT0ZS-1" value="&lt;div&gt;Cajero&lt;/div&gt;" style="whiteSpace=wrap;html=1;aspect=fixed;fillColor=none;labelPosition=center;verticalLabelPosition=top;align=center;verticalAlign=bottom;" vertex="1" parent="1">
          <mxGeometry x="179" y="170" width="551" height="551" as="geometry" />
        </mxCell>
        <mxCell id="sbe0txYyy42ywMZMT0ZS-15" style="edgeStyle=orthogonalEdgeStyle;rounded=0;orthogonalLoop=1;jettySize=auto;html=1;exitX=0.5;exitY=0.5;exitDx=0;exitDy=0;exitPerimeter=0;entryX=0;entryY=0.5;entryDx=0;entryDy=0;" edge="1" parent="1" source="sbe0txYyy42ywMZMT0ZS-2" target="sbe0txYyy42ywMZMT0ZS-4">
          <mxGeometry relative="1" as="geometry" />
        </mxCell>
        <mxCell id="sbe0txYyy42ywMZMT0ZS-2" value="&lt;div&gt;Cliente&lt;/div&gt;&lt;div&gt;&lt;br&gt;&lt;/div&gt;" style="shape=umlActor;verticalLabelPosition=bottom;verticalAlign=top;html=1;outlineConnect=0;fillColor=none;" vertex="1" parent="1">
          <mxGeometry x="100" y="300" width="30" height="60" as="geometry" />
        </mxCell>
        <mxCell id="sbe0txYyy42ywMZMT0ZS-3" value="Empleado" style="shape=umlActor;verticalLabelPosition=bottom;verticalAlign=top;html=1;outlineConnect=0;fillColor=none;" vertex="1" parent="1">
          <mxGeometry x="770" y="555" width="30" height="60" as="geometry" />
        </mxCell>
        <mxCell id="sbe0txYyy42ywMZMT0ZS-4" value="Realizar operaciones" style="ellipse;whiteSpace=wrap;html=1;fillColor=#dae8fc;strokeColor=#6c8ebf;" vertex="1" parent="1">
          <mxGeometry x="220" y="300" width="110" height="60" as="geometry" />
        </mxCell>
        <mxCell id="sbe0txYyy42ywMZMT0ZS-5" value="Identificarse" style="ellipse;whiteSpace=wrap;html=1;fillColor=#f8cecc;strokeColor=#b85450;" vertex="1" parent="1">
          <mxGeometry x="220" y="460" width="110" height="60" as="geometry" />
        </mxCell>
        <mxCell id="sbe0txYyy42ywMZMT0ZS-6" value="Cambiar PIN" style="ellipse;whiteSpace=wrap;html=1;fillColor=#fff2cc;strokeColor=#d6b656;" vertex="1" parent="1">
          <mxGeometry x="420" y="180" width="110" height="60" as="geometry" />
        </mxCell>
        <mxCell id="sbe0txYyy42ywMZMT0ZS-7" value="Obtener Ãºltimos movimientos" style="ellipse;whiteSpace=wrap;html=1;fillColor=#fff2cc;strokeColor=#d6b656;" vertex="1" parent="1">
          <mxGeometry x="420" y="250" width="110" height="60" as="geometry" />
        </mxCell>
        <mxCell id="sbe0txYyy42ywMZMT0ZS-8" value="Ver saldo" style="ellipse;whiteSpace=wrap;html=1;fillColor=#fff2cc;strokeColor=#d6b656;" vertex="1" parent="1">
          <mxGeometry x="420" y="320" width="110" height="60" as="geometry" />
        </mxCell>
        <mxCell id="sbe0txYyy42ywMZMT0ZS-9" value="Realizar reintegros" style="ellipse;whiteSpace=wrap;html=1;fillColor=#fff2cc;strokeColor=#d6b656;" vertex="1" parent="1">
          <mxGeometry x="420" y="390" width="110" height="60" as="geometry" />
        </mxCell>
        <mxCell id="sbe0txYyy42ywMZMT0ZS-12" value="&lt;div&gt;Reponer billetes&lt;/div&gt;" style="ellipse;whiteSpace=wrap;html=1;fillColor=#e1d5e7;strokeColor=#9673a6;" vertex="1" parent="1">
          <mxGeometry x="460" y="555" width="110" height="60" as="geometry" />
        </mxCell>
        <mxCell id="sbe0txYyy42ywMZMT0ZS-13" value="include" style="endArrow=classic;html=1;rounded=0;exitX=0.5;exitY=0.5;exitDx=0;exitDy=0;exitPerimeter=0;entryX=1;entryY=0.5;entryDx=0;entryDy=0;" edge="1" parent="1" source="sbe0txYyy42ywMZMT0ZS-3" target="sbe0txYyy42ywMZMT0ZS-12">
          <mxGeometry width="50" height="50" relative="1" as="geometry">
            <mxPoint x="380" y="510" as="sourcePoint" />
            <mxPoint x="430" y="460" as="targetPoint" />
          </mxGeometry>
        </mxCell>
        <mxCell id="sbe0txYyy42ywMZMT0ZS-14" value="include" style="endArrow=classic;html=1;rounded=0;exitX=0.5;exitY=0;exitDx=0;exitDy=0;entryX=0.5;entryY=1;entryDx=0;entryDy=0;" edge="1" parent="1" source="sbe0txYyy42ywMZMT0ZS-5" target="sbe0txYyy42ywMZMT0ZS-4">
          <mxGeometry width="50" height="50" relative="1" as="geometry">
            <mxPoint x="795" y="595" as="sourcePoint" />
            <mxPoint x="579.9999999999984" y="595" as="targetPoint" />
          </mxGeometry>
        </mxCell>
        <mxCell id="sbe0txYyy42ywMZMT0ZS-16" value="include" style="endArrow=classic;html=1;rounded=0;exitX=1;exitY=0;exitDx=0;exitDy=0;entryX=0;entryY=0.5;entryDx=0;entryDy=0;" edge="1" parent="1" source="sbe0txYyy42ywMZMT0ZS-4" target="sbe0txYyy42ywMZMT0ZS-6">
          <mxGeometry width="50" height="50" relative="1" as="geometry">
            <mxPoint x="285" y="470" as="sourcePoint" />
            <mxPoint x="285" y="370" as="targetPoint" />
          </mxGeometry>
        </mxCell>
        <mxCell id="sbe0txYyy42ywMZMT0ZS-17" value="include" style="endArrow=classic;html=1;rounded=0;exitX=1;exitY=0.5;exitDx=0;exitDy=0;entryX=0;entryY=0.5;entryDx=0;entryDy=0;" edge="1" parent="1" source="sbe0txYyy42ywMZMT0ZS-4" target="sbe0txYyy42ywMZMT0ZS-7">
          <mxGeometry width="50" height="50" relative="1" as="geometry">
            <mxPoint x="324.0261443358984" y="318.8608384847215" as="sourcePoint" />
            <mxPoint x="430.0000000000016" y="220" as="targetPoint" />
          </mxGeometry>
        </mxCell>
        <mxCell id="sbe0txYyy42ywMZMT0ZS-18" value="include" style="endArrow=classic;html=1;rounded=0;exitX=1;exitY=0.5;exitDx=0;exitDy=0;entryX=0;entryY=0.5;entryDx=0;entryDy=0;" edge="1" parent="1" source="sbe0txYyy42ywMZMT0ZS-4" target="sbe0txYyy42ywMZMT0ZS-8">
          <mxGeometry width="50" height="50" relative="1" as="geometry">
            <mxPoint x="340" y="340" as="sourcePoint" />
            <mxPoint x="430.0000000000016" y="290" as="targetPoint" />
          </mxGeometry>
        </mxCell>
        <mxCell id="sbe0txYyy42ywMZMT0ZS-19" value="include" style="endArrow=classic;html=1;rounded=0;exitX=1;exitY=1;exitDx=0;exitDy=0;entryX=0;entryY=0.5;entryDx=0;entryDy=0;" edge="1" parent="1" source="sbe0txYyy42ywMZMT0ZS-4" target="sbe0txYyy42ywMZMT0ZS-9">
          <mxGeometry width="50" height="50" relative="1" as="geometry">
            <mxPoint x="340" y="340" as="sourcePoint" />
            <mxPoint x="430.0000000000016" y="360" as="targetPoint" />
          </mxGeometry>
        </mxCell>
        <mxCell id="sbe0txYyy42ywMZMT0ZS-20" value="Visa" style="ellipse;whiteSpace=wrap;html=1;fillColor=#d5e8d4;strokeColor=#82b366;" vertex="1" parent="1">
          <mxGeometry x="590" y="370" width="90" height="40" as="geometry" />
        </mxCell>
        <mxCell id="sbe0txYyy42ywMZMT0ZS-21" value="Mastercard" style="ellipse;whiteSpace=wrap;html=1;fillColor=#d5e8d4;strokeColor=#82b366;" vertex="1" parent="1">
          <mxGeometry x="590" y="425.5" width="90" height="40" as="geometry" />
        </mxCell>
        <mxCell id="sbe0txYyy42ywMZMT0ZS-22" value="extend" style="endArrow=classic;html=1;rounded=0;exitX=0;exitY=0.5;exitDx=0;exitDy=0;entryX=1;entryY=0;entryDx=0;entryDy=0;dashed=1;" edge="1" parent="1" source="sbe0txYyy42ywMZMT0ZS-20" target="sbe0txYyy42ywMZMT0ZS-9">
          <mxGeometry width="50" height="50" relative="1" as="geometry">
            <mxPoint x="380" y="410" as="sourcePoint" />
            <mxPoint x="430" y="360" as="targetPoint" />
          </mxGeometry>
        </mxCell>
        <mxCell id="sbe0txYyy42ywMZMT0ZS-23" value="extend" style="endArrow=classic;html=1;rounded=0;exitX=0;exitY=0.5;exitDx=0;exitDy=0;entryX=1;entryY=1;entryDx=0;entryDy=0;dashed=1;" edge="1" parent="1" source="sbe0txYyy42ywMZMT0ZS-21" target="sbe0txYyy42ywMZMT0ZS-9">
          <mxGeometry width="50" height="50" relative="1" as="geometry">
            <mxPoint x="600" y="400" as="sourcePoint" />
            <mxPoint x="539.9999999999984" y="430" as="targetPoint" />
          </mxGeometry>
        </mxCell>
      </root>
    </mxGraphModel>
  </diagram>
</mxfile>
